<?xml version="1.0" encoding="utf-8"?>
<svg viewBox="0 0 1794.1 1782.3" xmlns="http://www.w3.org/2000/svg">
  <path d="M 1380.2 451.5 L 1794.2 451.5 L 1794.2 1652.2 C 1794.2 1724.1 1735.9 1782.3 1664.1 1782.3 L 130.1 1782.3 C 58.2 1782.3 0 1724 0 1652.2 L 0 451.5 L 555.6 451.5 L 555.6 341.4 C 555.6 152.9 708.6 0 897.1 0 C 1085.6 0 1238.5 152.9 1238.4 341.4 L 1238.4 451.5 L 1309.4 451.5 L 1309.4 341.4 C 1309.5 267.5 1285.5 195.6 1241 136.6 C 1328.5 200.9 1380.2 302.9 1380.2 411.5 Z M 626.4 451.5 L 697.4 451.5 L 697.4 411.5 C 697.3 348.7 714.7 287.1 747.6 233.5 C 798.3 162.2 880.5 119.8 968 119.9 C 1005.3 120 1042.1 128.1 1076 143.7 C 1063.7 141.8 1051.3 140.9 1038.8 140.9 L 1038.6 140.9 C 889.1 141 768 262.2 768.1 411.6 L 768.1 451.6 L 1167.8 451.6 L 1167.8 341.5 C 1164.5 193.3 1045.2 74 897.1 70.8 L 896.9 70.8 C 747.4 70.8 626.3 192 626.4 341.4 Z M 520.9 1087.8 L 868.1 1087.8 L 868.1 740.5 L 520.9 740.5 Z M 926 1087.8 L 1273.2 1087.8 L 1273.2 740.5 L 926 740.5 Z M 520.9 1492.8 L 868.1 1492.8 L 868.1 1145.6 L 520.9 1145.6 Z M 926 1492.8 L 1273.2 1492.8 L 1273.2 1145.6 L 926 1145.6 Z" fill="#e8e8e8" style="" transform="matrix(1, 0, 0, 1, 0, 1.4210854715202004e-14)"/>
</svg>