<svg xmlns="http://www.w3.org/2000/svg" xmlns:xlink="http://www.w3.org/1999/xlink" width="1100.048" height="806.69" viewBox="0 0 1100.048 806.69">
  <defs>
    <linearGradient id="linear-gradient" x1="-0.863" y1="1" x2="-0.863" gradientUnits="objectBoundingBox">
      <stop offset="0" stop-color="gray" stop-opacity="0.251"/>
      <stop offset="0.54" stop-color="gray" stop-opacity="0.122"/>
      <stop offset="1" stop-color="gray" stop-opacity="0.102"/>
    </linearGradient>
  </defs>
  <g id="feature-icon-01" transform="translate(0.037 -0.05)">
    <ellipse id="Elipse_1" data-name="Elipse 1" cx="122.56" cy="26.18" rx="122.56" ry="26.18" transform="translate(507.16 754.38)" fill="#f9a826" opacity="0.1"/>
    <path id="Trazado_1" data-name="Trazado 1" d="M1120.55,730.47c-24.35,20.2-59,28.56-92.51,33.84l-5.64.86c-58.57,8.74-118.32,10.52-177.79,12.28-165.87,4.91-332.17,9.81-497.6-1.51-73.16-5-148.13-13.76-212.25-43.7l-1.67-.79c-.83-.39-1.66-.78-2.49-1.19A224.113,224.113,0,0,1,98,711.17c-18.31-13.06-33.43-29-41.42-47.91-12.52-29.66-5.9-63,8.4-92s35.8-55.12,54.34-82.43c5.44-8,10.6-16.3,15.4-24.81,30-53.37,44.88-115.13,13.43-166.56a228.555,228.555,0,0,0-13.43-19c-7.67-10-15.47-20-20.74-31.07-12.29-25.76-9.65-54.73-5.17-82.25,6-36.59,17.05-76,51.38-98.86,35.67-23.74,86.3-22.54,130.57-14,68.83,13.19,132.36,40.8,196.49,65.7S618.6,165.56,689.11,168c62.26,2.17,134.89-14,176.23-56.08,40.15-40.85,115.6-43.94,170-19.27,51.91,23.54,85.48,73.36,83,123.12-3.16,62.1-54.93,111.83-95.9,164.7-6.81,8.79-13.33,17.68-19.28,26.72-19.42,29.53-33.15,65-19.78,96.88,7.5,17.85,21.81,31.47,39.06,43.36,38.65,26.63,92,44.55,116,81.83C1159.11,661.42,1151.45,704.82,1120.55,730.47Z" transform="translate(-50 -46.63)" fill="#f9a826" opacity="0.1"/>
    <ellipse id="Elipse_2" data-name="Elipse 2" cx="57.01" cy="10.96" rx="57.01" ry="10.96" transform="translate(915.49 693.89)" fill="#f9a826"/>
    <ellipse id="Elipse_3" data-name="Elipse 3" cx="6.64" cy="8.69" rx="6.64" ry="8.69" transform="translate(964.91 691.5)" fill="#484848"/>
    <ellipse id="Elipse_4" data-name="Elipse 4" cx="6.64" cy="8.69" rx="6.64" ry="8.69" transform="translate(964.91 680.88)" fill="#484848"/>
    <ellipse id="Elipse_5" data-name="Elipse 5" cx="6.64" cy="8.69" rx="6.64" ry="8.69" transform="translate(964.91 670.25)" fill="#484848"/>
    <ellipse id="Elipse_6" data-name="Elipse 6" cx="6.64" cy="8.69" rx="6.64" ry="8.69" transform="translate(964.91 659.63)" fill="#484848"/>
    <ellipse id="Elipse_7" data-name="Elipse 7" cx="6.64" cy="8.69" rx="6.64" ry="8.69" transform="translate(964.91 649.01)" fill="#484848"/>
    <ellipse id="Elipse_8" data-name="Elipse 8" cx="6.64" cy="8.69" rx="6.64" ry="8.69" transform="translate(964.91 638.39)" fill="#484848"/>
    <ellipse id="Elipse_9" data-name="Elipse 9" cx="6.64" cy="8.69" rx="6.64" ry="8.69" transform="translate(964.91 627.77)" fill="#3f3d56"/>
    <path id="Trazado_2" data-name="Trazado 2" d="M1046.4,610.41a31,31,0,0,0,2.47-3.64l-17.44-2.86,18.86.14a31.78,31.78,0,0,0,.61-25.2L1025.59,592l23.34-17.15a31.8,31.8,0,1,0-52.51,35.58,31.551,31.551,0,0,0-3.63,5.8L1015.43,628l-24.14-8.1a31.79,31.79,0,0,0,5.13,29.86,31.8,31.8,0,1,0,50,0,31.78,31.78,0,0,0,0-39.32Z" transform="translate(-50 -46.63)" fill="#f9a826"/>
    <path id="Trazado_3" data-name="Trazado 3" d="M989.61,630.07a31.68,31.68,0,0,0,6.81,19.66,31.8,31.8,0,1,0,50,0C1050.66,644.32,989.61,626.5,989.61,630.07Z" transform="translate(-50 -46.63)" opacity="0.1"/>
    <path id="Trazado_4" data-name="Trazado 4" d="M184.73,720.54c0,5.59-21.81,10.21-50,10.87h-1.67c-.83-.39-1.66-.78-2.49-1.19A224.113,224.113,0,0,1,98,711.17c6.85-.8,14.64-1.34,23-1.52h1.13c1.82,0,3.67-.06,5.54-.06h7.05C162.92,710.32,184.73,715,184.73,720.54Z" transform="translate(-50 -46.63)" fill="#f9a826"/>
    <ellipse id="Elipse_10" data-name="Elipse 10" cx="6.64" cy="8.69" rx="6.64" ry="8.69" transform="translate(70.12 660.56)" fill="#484848"/>
    <ellipse id="Elipse_11" data-name="Elipse 11" cx="6.64" cy="8.69" rx="6.64" ry="8.69" transform="translate(70.12 649.94)" fill="#484848"/>
    <ellipse id="Elipse_12" data-name="Elipse 12" cx="6.64" cy="8.69" rx="6.64" ry="8.69" transform="translate(70.12 639.32)" fill="#484848"/>
    <ellipse id="Elipse_13" data-name="Elipse 13" cx="6.64" cy="8.69" rx="6.64" ry="8.69" transform="translate(70.12 628.7)" fill="#484848"/>
    <ellipse id="Elipse_14" data-name="Elipse 14" cx="6.64" cy="8.69" rx="6.64" ry="8.69" transform="translate(70.12 618.08)" fill="#484848"/>
    <ellipse id="Elipse_15" data-name="Elipse 15" cx="6.64" cy="8.69" rx="6.64" ry="8.69" transform="translate(70.12 607.46)" fill="#3f3d56"/>
    <ellipse id="Elipse_16" data-name="Elipse 16" cx="6.64" cy="8.69" rx="6.64" ry="8.69" transform="translate(70.12 596.83)" fill="#3f3d56"/>
    <path id="Trazado_5" data-name="Trazado 5" d="M151.61,579.47a32.285,32.285,0,0,0,2.48-3.63L136.64,573l18.87.14a31.8,31.8,0,0,0,.6-25.19l-25.3,13.13,23.34-17.16a31.8,31.8,0,1,0-52.52,35.58A32.451,32.451,0,0,0,98,585.3L120.64,597,96.5,588.93a31.87,31.87,0,0,0,5.13,29.86,31.8,31.8,0,1,0,50,0,31.78,31.78,0,0,0,0-39.32Z" transform="translate(-50 -46.63)" fill="#f9a826"/>
    <path id="Trazado_6" data-name="Trazado 6" d="M94.83,599.13a31.67,31.67,0,0,0,6.8,19.66,31.8,31.8,0,1,0,50,0C155.87,613.38,94.83,595.56,94.83,599.13Z" transform="translate(-50 -46.63)" opacity="0.1"/>
    <g id="Grupo_1" data-name="Grupo 1" opacity="0.2">
      <path id="Trazado_7" data-name="Trazado 7" d="M355.84,601.92a24.893,24.893,0,0,1-.2,2.76Q344,600,332.72,594.75a18.589,18.589,0,0,1-10.6-5.17c-2.19-1.1-4.37-2.24-6.54-3.39a26.818,26.818,0,0,1,1.66-3c4.2-6.66,10.6-10.83,17.65-10.6s13.15,4.78,16.93,11.66a34.37,34.37,0,0,1,4.02,17.67Z" transform="translate(-50 -46.63)" fill="#3f3d56"/>
      <path id="Trazado_8" data-name="Trazado 8" d="M357,567a34.56,34.56,0,0,1-5.13,17.32c-4.21,6.64-10.6,10.81-17.65,10.58-.49,0-1-.06-1.45-.1a18.59,18.59,0,0,1-10.6-5.17,25.27,25.27,0,0,1-4.88-6.37,35.82,35.82,0,0,1,1.1-35c4.21-6.66,10.6-10.83,17.65-10.6s13.15,4.78,16.93,11.66A34.47,34.47,0,0,1,357,567Z" transform="translate(-50 -46.63)" fill="#3f3d56"/>
      <ellipse id="Elipse_17" data-name="Elipse 17" cx="28.63" cy="21.87" rx="28.63" ry="21.87" transform="translate(263.441 512.616) rotate(-88.19)" fill="#3f3d56"/>
      <ellipse id="Elipse_18" data-name="Elipse 18" cx="28.63" cy="21.87" rx="28.63" ry="21.87" transform="translate(264.543 477.642) rotate(-88.19)" fill="#3f3d56"/>
      <ellipse id="Elipse_19" data-name="Elipse 19" cx="28.63" cy="21.87" rx="28.63" ry="21.87" transform="translate(265.646 442.668) rotate(-88.19)" fill="#3f3d56"/>
      <path id="Trazado_9" data-name="Trazado 9" d="M264.12,219.46a105.782,105.782,0,0,1-7.76-12.24l57.72-7.62L252,198.1a104.92,104.92,0,0,1,.62-83l82,45.85L259.47,102A104.75,104.75,0,1,1,428.69,224.65,105.132,105.132,0,0,1,440,244.11l-75.77,36.38,80.33-24.17a104.85,104.85,0,0,1-20,97.78A104.75,104.75,0,1,1,260,348.91a104.73,104.73,0,0,1,4.08-129.45Z" transform="translate(-50 -46.63)" fill="#f9a826"/>
      <path id="Trazado_10" data-name="Trazado 10" d="M449.05,290.08a104.29,104.29,0,0,1-24.44,64A104.75,104.75,0,1,1,260,348.91C246.57,330.66,449.42,278.33,449.05,290.08Z" transform="translate(-50 -46.63)" opacity="0.1"/>
    </g>
    <g id="Grupo_2" data-name="Grupo 2" opacity="0.2">
      <path id="Trazado_11" data-name="Trazado 11" d="M848.18,527.14a19.375,19.375,0,0,1-.14,2q-8.31-3.29-16.31-7.06a13.31,13.31,0,0,1-7.55-3.68c-1.55-.79-3.11-1.6-4.65-2.41a19.768,19.768,0,0,1,1.18-2.13c3-4.74,7.54-7.7,12.56-7.54s9.36,3.4,12.05,8.3a24.5,24.5,0,0,1,2.86,12.52Z" transform="translate(-50 -46.63)" fill="#3f3d56"/>
      <path id="Trazado_12" data-name="Trazado 12" d="M849,502.25a24.56,24.56,0,0,1-3.65,12.33c-3,4.72-7.54,7.69-12.56,7.53l-1-.07a13.31,13.31,0,0,1-7.55-3.68,18.318,18.318,0,0,1-3.47-4.54,25.51,25.51,0,0,1,.78-24.88c3-4.74,7.55-7.71,12.56-7.55s9.37,3.4,12.05,8.3A24.551,24.551,0,0,1,849,502.25Z" transform="translate(-50 -46.63)" fill="#3f3d56"/>
      <ellipse id="Elipse_20" data-name="Elipse 20" cx="20.37" cy="15.56" rx="20.37" ry="15.56" transform="translate(768.058 450.14) rotate(-88.19)" fill="#3f3d56"/>
      <ellipse id="Elipse_21" data-name="Elipse 21" cx="20.37" cy="15.56" rx="20.37" ry="15.56" transform="translate(768.835 425.254) rotate(-88.19)" fill="#3f3d56"/>
      <ellipse id="Elipse_22" data-name="Elipse 22" cx="20.37" cy="15.56" rx="20.37" ry="15.56" transform="translate(769.622 400.368) rotate(-88.19)" fill="#3f3d56"/>
      <path id="Trazado_13" data-name="Trazado 13" d="M782.91,255a73.567,73.567,0,0,1-5.52-8.71l41.08-5.42-44.21-1.07a74.67,74.67,0,0,1,.43-59.07L833,213.32l-53.4-41.93A74.55,74.55,0,1,1,900,258.65a74.7,74.7,0,0,1,8.06,13.86L854.17,298.4l57.17-17.2a74.55,74.55,0,0,1-14.22,69.58A74.54,74.54,0,1,1,780,347.09,74.55,74.55,0,0,1,782.91,255Z" transform="translate(-50 -46.63)" fill="#f9a826"/>
      <path id="Trazado_14" data-name="Trazado 14" d="M914.52,305.22a74.2,74.2,0,0,1-17.4,45.56A74.54,74.54,0,1,1,780,347.09C770.42,334.09,914.78,296.86,914.52,305.22Z" transform="translate(-50 -46.63)" opacity="0.1"/>
    </g>
    <g id="Grupo_3" data-name="Grupo 3" opacity="0.2">
      <path id="Trazado_15" data-name="Trazado 15" d="M635,449.09a19.434,19.434,0,0,1-.15,2q-8.31-3.29-16.31-7.06a13.28,13.28,0,0,1-7.54-3.68c-1.56-.79-3.11-1.6-4.65-2.41a19,19,0,0,1,1.17-2.13c3-4.73,7.55-7.7,12.56-7.54s9.36,3.4,12.05,8.3A24.5,24.5,0,0,1,635,449.09Z" transform="translate(-50 -46.63)" fill="#3f3d56"/>
      <path id="Trazado_16" data-name="Trazado 16" d="M635.74,424.2a24.56,24.56,0,0,1-3.65,12.33c-3,4.72-7.54,7.69-12.56,7.53a4.667,4.667,0,0,1-1-.07,13.28,13.28,0,0,1-7.54-3.68,18.111,18.111,0,0,1-3.48-4.54,25.48,25.48,0,0,1,.79-24.88c3-4.74,7.54-7.71,12.56-7.55s9.36,3.4,12,8.3a24.54,24.54,0,0,1,2.88,12.56Z" transform="translate(-50 -46.63)" fill="#3f3d56"/>
      <ellipse id="Elipse_23" data-name="Elipse 23" cx="20.37" cy="15.56" rx="20.37" ry="15.56" transform="matrix(0.03, -1, 1, 0.03, 554.048, 371.178)" fill="#3f3d56"/>
      <ellipse id="Elipse_24" data-name="Elipse 24" cx="20.37" cy="15.56" rx="20.37" ry="15.56" transform="translate(555.588 347.202) rotate(-88.19)" fill="#3f3d56"/>
      <ellipse id="Elipse_25" data-name="Elipse 25" cx="20.37" cy="15.56" rx="20.37" ry="15.56" transform="translate(556.386 322.306) rotate(-88.19)" fill="#3f3d56"/>
      <path id="Trazado_17" data-name="Trazado 17" d="M569.68,176.91a74.861,74.861,0,0,1-5.52-8.71l41.08-5.42L561,161.71a74.62,74.62,0,0,1,.44-59.07l58.33,32.63L566.38,93.34A74.54,74.54,0,1,1,686.8,180.6a74.757,74.757,0,0,1,8.07,13.86L641,220.35l57.16-17.2a74.55,74.55,0,0,1-14.22,69.58A74.54,74.54,0,1,1,566.78,269a74.57,74.57,0,0,1,2.9-92.13Z" transform="translate(-50 -46.63)" fill="#f9a826"/>
      <path id="Trazado_18" data-name="Trazado 18" d="M701.29,227.17a74.2,74.2,0,0,1-17.4,45.56A74.54,74.54,0,1,1,566.78,269C557.19,256.05,701.55,218.81,701.29,227.17Z" transform="translate(-50 -46.63)" opacity="0.1"/>
    </g>
    <path id="Trazado_19" data-name="Trazado 19" d="M1022.4,547.44V765.17c-58.57,8.74-118.32,10.52-177.79,12.28-165.87,4.91-332.17,9.81-497.6-1.51-73.16-5-148.13-13.76-212.25-43.7V464c.24-185-.76,0,0-185.56V211.85a14.1,14.1,0,0,1,14.1-14.1H1008.3a14.1,14.1,0,0,1,14.1,14.1V380.48C1023,547,1022,381,1022.4,547.44Z" transform="translate(-50 -46.63)" fill="#292929"/>
    <rect id="Rectángulo_1" data-name="Rectángulo 1" width="368.86" height="28.56" rx="5.22" transform="translate(344.15 217.75)" fill="#f9a826" opacity="0.3"/>
    <path id="Trazado_20" data-name="Trazado 20" d="M737.94,279.85h-.61l-.23-.19a5.1,5.1,0,0,0,1.19-3.25,4.94,4.94,0,1,0-4.92,5,5.09,5.09,0,0,0,3.24-1.18l.22.19V281l3.81,3.82,1.14-1.14Zm-4.57,0a3.42,3.42,0,1,1,2.432-1.005,3.42,3.42,0,0,1-2.432,1.005Z" transform="translate(-50 -46.63)" fill="#545454"/>
    <rect id="Rectángulo_2" data-name="Rectángulo 2" width="34.42" height="11.9" rx="5" transform="translate(222.84 493.2)" fill="#484848" opacity="0.7"/>
    <rect id="Rectángulo_3" data-name="Rectángulo 3" width="53.54" height="11.9" rx="5" transform="translate(222.84 522.95)" fill="#f9a826" opacity="0.3"/>
    <rect id="Rectángulo_4" data-name="Rectángulo 4" width="107.09" height="11.9" rx="5" transform="translate(222.84 508.08)" fill="#f9a826" opacity="0.3"/>
    <path id="Trazado_21" data-name="Trazado 21" d="M214.57,569.21a5.74,5.74,0,0,0-5.8,5.69,3.88,3.88,0,0,1-3.87,3.79,10,10,0,0,0,7.73,3.8,7.67,7.67,0,0,0,7.75-7.59,5.75,5.75,0,0,0-5.81-5.69Zm26.53-17.76-2.6-2.55a1.94,1.94,0,0,0-2.72,0l-17.34,17,5.32,5.22,17.32-17a1.86,1.86,0,0,0,.02-2.67Z" transform="translate(-50 -46.63)" fill="#f9a826"/>
    <rect id="Rectángulo_5" data-name="Rectángulo 5" width="34.42" height="11.9" rx="5" transform="translate(222.84 345.66)" fill="#484848" opacity="0.7"/>
    <rect id="Rectángulo_6" data-name="Rectángulo 6" width="53.54" height="11.9" rx="5" transform="translate(222.84 375.41)" fill="#f9a826" opacity="0.3"/>
    <rect id="Rectángulo_7" data-name="Rectángulo 7" width="107.09" height="11.9" rx="5" transform="translate(222.84 360.53)" fill="#f9a826" opacity="0.3"/>
    <path id="Trazado_22" data-name="Trazado 22" d="M241.18,424.78,226,409.5a10.82,10.82,0,0,0-2.51-11.58,11,11,0,0,0-12.35-2.18l7.18,7.22-5,5L206,400.78a10.86,10.86,0,0,0,2.17,12.41,10.66,10.66,0,0,0,11.51,2.52L234.83,431a1.61,1.61,0,0,0,2.34,0l3.84-3.86a1.51,1.51,0,0,0,.17-2.35Z" transform="translate(-50 -46.63)" fill="#f9a826"/>
    <rect id="Rectángulo_8" data-name="Rectángulo 8" width="34.42" height="11.9" rx="5" transform="translate(509.6 493.2)" fill="#484848" opacity="0.7"/>
    <rect id="Rectángulo_9" data-name="Rectángulo 9" width="53.54" height="11.9" rx="5" transform="translate(509.6 522.95)" fill="#f9a826" opacity="0.3"/>
    <rect id="Rectángulo_10" data-name="Rectángulo 10" width="107.09" height="11.9" rx="5" transform="translate(509.6 508.08)" fill="#f9a826" opacity="0.3"/>
    <path id="Trazado_23" data-name="Trazado 23" d="M509.44,572.63a10,10,0,0,1-9.89,0c-3.87,1.19-6.24,5.09-7.12,8.54h24.12C515.68,577.72,513.32,573.82,509.44,572.63Zm-4.94-18.37a8.69,8.69,0,1,0,8.69,8.68,8.69,8.69,0,0,0-8.69-8.68Zm0,15.3a6.71,6.71,0,0,1-6.07-4.14h12.14a6.71,6.71,0,0,1-6.07,4.14Z" transform="translate(-50 -46.63)" fill="#f9a826"/>
    <path id="Trazado_24" data-name="Trazado 24" d="M522.09,568a10.07,10.07,0,0,1-8.4.69,12,12,0,0,1-2.3,2.86,11.239,11.239,0,0,1,4.9,4.33H529.2a10.72,10.72,0,0,0-7.11-7.88Zm-4.94-18.38a8.71,8.71,0,0,0-7.33,4,10.78,10.78,0,0,1,5.15,7.14h8.25a6.72,6.72,0,0,1-6.07,4.12,6,6,0,0,1-2.08-.38,11.656,11.656,0,0,1-.54,2.07,8.349,8.349,0,0,0,2.62.4,8.69,8.69,0,0,0,0-17.38Z" transform="translate(-50 -46.63)" fill="#f9a826"/>
    <rect id="Rectángulo_11" data-name="Rectángulo 11" width="34.42" height="11.9" rx="5" transform="translate(222.84 603.86)" fill="#484848" opacity="0.7"/>
    <rect id="Rectángulo_12" data-name="Rectángulo 12" width="53.54" height="11.9" rx="5" transform="translate(222.84 633.61)" fill="#f9a826" opacity="0.3"/>
    <rect id="Rectángulo_13" data-name="Rectángulo 13" width="107.09" height="11.9" rx="5" transform="translate(222.84 618.74)" fill="#f9a826" opacity="0.3"/>
    <path id="Trazado_25" data-name="Trazado 25" d="M226.57,654.25h-9.82a3.28,3.28,0,0,0-3.32,3.24v.7h-.62a3.28,3.28,0,0,0-3.32,3.24v23.63a3.34,3.34,0,0,0,3.32,3.32h17.08a3.27,3.27,0,0,0,3.23-3.32v-.62h.71a3.27,3.27,0,0,0,3.23-3.32V664.75Zm0,3.66,6.84,6.84h-6.84Zm3.94,27.15a.67.67,0,0,1-.62.7H212.81a.73.73,0,0,1-.69-.7V661.43a.67.67,0,0,1,.69-.62h.62v21c0,1.82.86,2.66,2.67,2.66h14.41Zm3.93-3.94a.66.66,0,0,1-.61.7H216.75a.73.73,0,0,1-.69-.7V657.49a.67.67,0,0,1,.69-.62h7.19v10.51h10.5Z" transform="translate(-50 -46.63)" fill="#f9a826"/>
    <rect id="Rectángulo_14" data-name="Rectángulo 14" width="34.42" height="11.9" rx="5" transform="translate(509.6 345.66)" fill="#484848" opacity="0.7"/>
    <rect id="Rectángulo_15" data-name="Rectángulo 15" width="53.54" height="11.9" rx="5" transform="translate(509.6 375.41)" fill="#f9a826" opacity="0.3"/>
    <rect id="Rectángulo_16" data-name="Rectángulo 16" width="107.09" height="11.9" rx="5" transform="translate(509.6 360.53)" fill="#f9a826" opacity="0.3"/>
    <path id="Trazado_26" data-name="Trazado 26" d="M507.32,400H495.94a3.51,3.51,0,0,0-3.5,3.51v19.25a3.5,3.5,0,0,0,3.5,3.5H525.7a3.5,3.5,0,0,0,3.5-3.5V407.42a3.51,3.51,0,0,0-3.5-3.5H510.82l-3.5-3.94Z" transform="translate(-50 -46.63)" fill="#f9a826"/>
    <rect id="Rectángulo_17" data-name="Rectángulo 17" width="34.42" height="11.9" rx="5" transform="translate(792.79 493.2)" fill="#484848" opacity="0.7"/>
    <rect id="Rectángulo_18" data-name="Rectángulo 18" width="53.54" height="11.9" rx="5" transform="translate(792.79 522.95)" fill="#f9a826" opacity="0.3"/>
    <rect id="Rectángulo_19" data-name="Rectángulo 19" width="107.09" height="11.9" rx="5" transform="translate(792.79 508.08)" fill="#f9a826" opacity="0.3"/>
    <path id="Trazado_27" data-name="Trazado 27" d="M812.93,555.91l-6.77-.32-.4-4.41a1.7,1.7,0,0,0-1.88-1.52l-24.27,2a1.67,1.67,0,0,0-1.59,1.79l1.73,19.35a1.7,1.7,0,0,0,1.88,1.49l1.23-.09-.19,3.76a1.87,1.87,0,0,0,1.83,1.93l27.09,1.28a1.88,1.88,0,0,0,2-1.74l1.14-21.6a1.86,1.86,0,0,0-1.8-1.92Zm-29.12.44-.58,11.06-1.44,2-1.32-14.61v-.09a.89.89,0,0,1,.78-.77l21.42-1.75a.81.81,0,0,1,.87.64h0l.21,2.52-18-.86A1.9,1.9,0,0,0,783.81,556.35Zm27.4,19.44-7-8.17-3.07,2.82-5.67-6.63L785.4,574.53l.86-16.33h0a.94.94,0,0,1,1-.74l23.9,1.16a.87.87,0,0,1,.85.83h0Z" transform="translate(-50 -46.63)" fill="#f9a826"/>
    <path id="Trazado_28" data-name="Trazado 28" d="M806.89,565.42a2.63,2.63,0,1,0-2.62-2.63A2.63,2.63,0,0,0,806.89,565.42Z" transform="translate(-50 -46.63)" fill="#f9a826"/>
    <rect id="Rectángulo_20" data-name="Rectángulo 20" width="34.42" height="11.9" rx="5" transform="translate(795.17 345.66)" fill="#484848" opacity="0.7"/>
    <rect id="Rectángulo_21" data-name="Rectángulo 21" width="53.54" height="11.9" rx="5" transform="translate(795.17 375.41)" fill="#f9a826" opacity="0.3"/>
    <rect id="Rectángulo_22" data-name="Rectángulo 22" width="107.09" height="11.9" rx="5" transform="translate(795.17 360.53)" fill="#f9a826" opacity="0.3"/>
    <circle id="Elipse_26" data-name="Elipse 26" cx="5.25" cy="5.25" r="5.25" transform="translate(757.31 351.38)" fill="#f9a826"/>
    <path id="Trazado_29" data-name="Trazado 29" d="M808.53,409.45l-10.42,6.94-14.44-9.62v-3.51l14.44,9.63,8.3-5.53a7.39,7.39,0,0,1-.1-8H783.24a3.52,3.52,0,0,0-3.51,3.51v21.88a3.52,3.52,0,0,0,3.51,3.51H813a3.51,3.51,0,0,0,3.5-3.51v-15.2a7.37,7.37,0,0,1-8-.06Z" transform="translate(-50 -46.63)" fill="#f9a826"/>
    <ellipse id="Elipse_27" data-name="Elipse 27" cx="26.08" cy="5.01" rx="26.08" ry="5.01" transform="translate(483.56 741.01)" fill="#f9a826"/>
    <ellipse id="Elipse_28" data-name="Elipse 28" cx="3.04" cy="3.97" rx="3.04" ry="3.97" transform="translate(506.17 739.92)" fill="#484848"/>
    <ellipse id="Elipse_29" data-name="Elipse 29" cx="3.04" cy="3.97" rx="3.04" ry="3.97" transform="translate(506.17 735.06)" fill="#484848"/>
    <ellipse id="Elipse_30" data-name="Elipse 30" cx="3.04" cy="3.97" rx="3.04" ry="3.97" transform="translate(506.17 730.2)" fill="#484848"/>
    <ellipse id="Elipse_31" data-name="Elipse 31" cx="3.04" cy="3.97" rx="3.04" ry="3.97" transform="translate(506.17 725.34)" fill="#484848"/>
    <ellipse id="Elipse_32" data-name="Elipse 32" cx="3.04" cy="3.97" rx="3.04" ry="3.97" transform="translate(506.17 720.49)" fill="#484848"/>
    <ellipse id="Elipse_33" data-name="Elipse 33" cx="3.04" cy="3.97" rx="3.04" ry="3.97" transform="translate(506.17 715.63)" fill="#484848"/>
    <ellipse id="Elipse_34" data-name="Elipse 34" cx="3.04" cy="3.97" rx="3.04" ry="3.97" transform="translate(506.17 710.77)" fill="#3f3d56"/>
    <path id="Trazado_30" data-name="Trazado 30" d="M570.57,728.13a13.589,13.589,0,0,0,1.13-1.67l-8-1.31,8.62.07a14.59,14.59,0,0,0,.28-11.52l-11.57,6,10.67-7.85a14.54,14.54,0,1,0-24,16.28,15.12,15.12,0,0,0-1.66,2.65l10.36,5.38-11-3.7a14.53,14.53,0,0,0,2.34,13.65,14.54,14.54,0,1,0,22.86,0,14.55,14.55,0,0,0,0-18Z" transform="translate(-50 -46.63)" fill="#f9a826"/>
    <path id="Trazado_31" data-name="Trazado 31" d="M544.6,737.12a14.45,14.45,0,0,0,3.11,9,14.54,14.54,0,1,0,22.86,0C572.52,743.64,544.6,735.49,544.6,737.12Z" transform="translate(-50 -46.63)" opacity="0.1"/>
    <path id="Trazado_32" data-name="Trazado 32" d="M802,436.86a13.681,13.681,0,0,1-1-2.7c-.1-1.07.32-2.48-.63-3-.53-.29-1.27-.07-1.74-.45a2.15,2.15,0,0,1-.51-1.2,4.1,4.1,0,0,0-3.8-3c1-2.71,4.68-3.37,6.3-5.76.81-1.19.55-3.38-.88-3.39a2.49,2.49,0,0,0-1,.25l-5.33,2.2a27.348,27.348,0,0,0-3,1.39c-2.93,1.67-5.12,4.38-7.09,7.13a30.49,30.49,0,0,0-4.41,8,18,18,0,0,0-.94,5.49c0,.19,0,.38,0,.56-.87.15-1.58.53-2.49.71l-2.07,5.47a6.93,6.93,0,0,1-1.35,2.49,12.539,12.539,0,0,1-1.46,1.15,8.45,8.45,0,0,0-2.91,7.37,7.93,7.93,0,0,0-4.66,9.78,9.31,9.31,0,0,0-6.81,6,4.429,4.429,0,0,1-.89,1.88,3.55,3.55,0,0,1-2.37.73c-2.34.15-4.38,2-6.49,1a13.21,13.21,0,0,0-7.71-1.08,5.77,5.77,0,0,1-1.65.15,4.43,4.43,0,0,1-1.35-.47,10.46,10.46,0,0,0-3.06-1.21,2.84,2.84,0,0,0-2.9,1.12c-.74-.81-1.18-1.86-1.85-2.73a3,3,0,0,0-2.82-1.35c.7-.63,0-1.89-.93-2.11a11.562,11.562,0,0,0-2.81.1c-2.44,0-4.32-2.24-6.69-2.83-2.18-.53-5.09.11-6.21-1.85-.35-.63-.45-1.45-1-1.92a3.64,3.64,0,0,0-.71-1.45,4.768,4.768,0,0,0-3.76-1.12,15.681,15.681,0,0,0-4.37.75,2.24,2.24,0,0,0-.15-.56,11.09,11.09,0,0,0-4.84-5.94A20,20,0,0,0,688,454.2v-.53a22.55,22.55,0,0,1,1.16-7.43c.08-.26.18-.52.27-.78a26.6,26.6,0,0,0,12-44.63,6.826,6.826,0,0,0-.21-1.6,7.86,7.86,0,0,0-1.6-3.12c-1.22-2.72-3.12-3.92-5.55-5.06-.7-.33-1.44-.65-2.22-1-3.87-1.74-7.61-4.3-12-4.29-4,0-7.86,2.21-11.82,2.13h-.95c-1.11-.13-2.44-.39-3.17.46a4.5,4.5,0,0,0-.56,1.09,2.638,2.638,0,0,1-.2.37h0a4.4,4.4,0,0,1-.51.69h0c-1.28,1.4-3.43,2-5.2,2.94-4,2.05-6.62,6.23-7.66,10.61a33.435,33.435,0,0,0,.1,13.44c.4,2.22,1.26,4.74,2.84,6.14h0s-13.37,9.51-10.93,10.86c1.33.74,6.87-2.77,11.64-6.12.05.2.09.41.15.61a44,44,0,0,0,2.18,6.25c1,2.39,2.44,5,4.93,5.69a5.361,5.361,0,0,0,1.69.19h.44a39.384,39.384,0,0,1-1.15,10.87,6.61,6.61,0,0,0-4.09,1.13,3.29,3.29,0,0,1-1.66.88,2.89,2.89,0,0,1-1.71-.84,9.7,9.7,0,0,0-12.14.64c-4.84,4.57-4.29,13.49-10,16.95-1.56.95-3.56,1.46-4.48,3.05a11.411,11.411,0,0,1-.77,1.47,4.049,4.049,0,0,1-1.36,1,26.48,26.48,0,0,0-4.68,2.7,6.72,6.72,0,0,0-2.69,4.54,8.61,8.61,0,0,0,.82,3.81,36.447,36.447,0,0,0,3.12,6,6.38,6.38,0,0,0-1.26,2.95c-.4,2.81.94,5.58,1.09,8.42.13,2.48-.66,4.9-1.1,7.34-1.76,9.54,1.61,19.2,5,28.26a14.58,14.58,0,0,1,1.2,4.65c.09,3-1.6,5.67-2.07,8.59-1,6.14,3.53,11.92,3.63,18.13,0,2.87-.86,5.78-.14,8.55.47,1.85,1.62,3.44,2.44,5.17,1.44,3.06,1.83,6.53,3.21,9.62a23.071,23.071,0,0,0,7.12,8.48c1.73,5.49-.73,12.12,0,18q1.41-.56,2.85-1a41.17,41.17,0,0,0,6.3,24.84c1.55,2.42,3.37,4.68,4.54,7.31a34.26,34.26,0,0,1,1.77,5.79q2.51,10.47,5,20.92c1.36,5.65,2.73,11.4,2.32,17.2-.28,4-1.3,8.57,1.18,11.77a8.509,8.509,0,0,1,1.49,2.06,5.22,5.22,0,0,1,0,2.72,180.745,180.745,0,0,0-2.48,20.39c-.56.75-1.12,1.51-1.63,2.26-4.11,6-6.09,13.21-7.69,20.32a245.825,245.825,0,0,0-5.16,42.44,28.381,28.381,0,0,0-5.26,6.41c-2.15,4-2.43,8.7-2.66,13.24a4.728,4.728,0,0,0,.24,2.18A4.48,4.48,0,0,0,644.2,822l1.24.59c-.27,1-.51,2-.72,3.05-1.58-1.78-4.39-4.6-4.87-2.54a101.781,101.781,0,0,0-2.56,21,1.77,1.77,0,0,0,1.9,2.12A116.257,116.257,0,0,0,660,848c5.65,0,11.29-.46,16.92-.89l5.77-.44a127.7,127.7,0,0,0,17.67-2.19c2.55-.56,5.18-1.35,7.1-3.14s2.86-4.85,1.54-7.12h0c-1.61-2.74-5.37-2.94-8.51-3.38a27.85,27.85,0,0,1-8.92-2.84c-.63-.32-1.24-.68-1.85-1a1.389,1.389,0,0,0,.48-.14c2.7-.91,4.85-3,7.39-4.25,3-1.45,6.31-1.78,9.57-2.19s6.62-1,9.33-2.86c2.54-1.74,4.34-4.91,3.75-7.89a5.155,5.155,0,0,0-.16-.62c-1-3.23-4.5-5-7.76-5.8s-6.8-1.28-9.44-3.38l-.39-.31c-.22-.19-.45-.37-.69-.56a5.62,5.62,0,0,0,.77-3.26c-.14-1.79-1.18-3.37-1.89-5-1.39-3.25-1.5-6.88-1.88-10.39-.94-8.83-3.65-17.35-5.69-26-.23-1-.45-2-.67-3a62.862,62.862,0,0,1,7.27-11.64,38,38,0,0,0,7-13.77c.42-1.54.73-3.1,1.05-4.67Q713.18,694.18,718,667a45.188,45.188,0,0,0,.91-7.84,23.891,23.891,0,0,0,1.35-7.43c.94-3.67,1.89-7.52,1.12-9.92-.54-1.7-.81-7.51-1.11-13.08a50.238,50.238,0,0,0-.54-8.93c-.09-.51-.19-1-.3-1.51q-.09-.45-.18-.75a25.686,25.686,0,0,0-1.76-4.86,23.632,23.632,0,0,0-1.32-2.71,12.349,12.349,0,0,0-1-1.48,61.979,61.979,0,0,1,6.22.58c.5.07,1.12.11,1.43-.3A1.47,1.47,0,0,0,723,608a12.749,12.749,0,0,0-1.62-6.76c-.8-1.42-1.91-2.8-1.88-4.43a6.53,6.53,0,0,1,.55-2.2l2.77-7.44c2.35-6.29,1.23-13.58,2.45-20.18a118.444,118.444,0,0,0,1.82-15.61c.23-4.47.09-9.32-2.6-12.9a14.733,14.733,0,0,1-2-2.84,8.41,8.41,0,0,1-.48-3.39q-.07-10.51.42-21a206.379,206.379,0,0,0,35.05-4,22,22,0,0,0,4-1.08,20.2,20.2,0,0,0,4-2.53c3.93-2.84,7.92-5.73,10.91-9.55a32.36,32.36,0,0,0,6.46-15.94c2.84-2.63,4.35-6.37,5.77-10a15.418,15.418,0,0,0,1.32-4.85c.07-1.72-1.06-3.52-.74-5.21a13.78,13.78,0,0,1,4.19-7.58,2.74,2.74,0,0,0,1-1.33,2.12,2.12,0,0,0-.23-1.3l-.09-.15c.28-.17.54-.35.81-.53.93-.66,1.82-1.39,2.69-2.1a17,17,0,0,0,3.49-3.54,5.75,5.75,0,0,0,.94-4.7ZM673.69,820.15a2.8,2.8,0,0,0-.71.06,9.57,9.57,0,0,0-2.54.73l-.19.1c1.1-2.38,2.14-4.8,3.08-7.26.11-.29.21-.58.32-.88l-.12,1.64a20.221,20.221,0,0,0,.16,5.61Z" transform="translate(-50 -46.63)" fill="url(#linear-gradient)"/>
    <path id="Trazado_33" data-name="Trazado 33" d="M688,455.73c.1,3.88,1.42,7.64,1.62,11.52-11.43.57-22.72-5-34-3.28,3.17-2.05,4.86-5.74,5.86-9.37a38.9,38.9,0,0,0,1.11-14.41,6.587,6.587,0,0,0-.14-.79c-.42-1.9-1.51-4.59-1.22-6.08.39-2,2.25-1.59,3.93-1.48a150.5,150.5,0,0,1,15.26,2c1.32.23,14.13,3.43,14.33,3.1a59.693,59.693,0,0,0-5.55,11.43,22.319,22.319,0,0,0-1.2,7.36Z" transform="translate(-50 -46.63)" fill="#ee8e9e"/>
    <path id="Trazado_34" data-name="Trazado 34" d="M801.05,443.73a16.645,16.645,0,0,1-3.49,3.52c-.87.71-1.76,1.44-2.69,2.09a11.5,11.5,0,0,1-5.72,2.33c-2.72.18-8.51-1.42-10.2-3.75a6.769,6.769,0,0,1-1-3.91,17.88,17.88,0,0,1,.94-5.46,30.426,30.426,0,0,1,4.41-8c2-2.74,4.16-5.43,7.09-7.09a27.342,27.342,0,0,1,3-1.39l5.33-2.18a2.5,2.5,0,0,1,1-.26c1.43,0,1.69,2.2.88,3.38-1.62,2.38-5.27,3-6.3,5.73a4.09,4.09,0,0,1,3.8,2.95,2.11,2.11,0,0,0,.51,1.19c.47.37,1.21.16,1.74.45.95.5.53,1.91.63,3a13.5,13.5,0,0,0,1,2.68A5.69,5.69,0,0,1,801.05,443.73Z" transform="translate(-50 -46.63)" fill="#ee8e9e"/>
    <path id="Trazado_35" data-name="Trazado 35" d="M643.4,833.08c.88-.88,2.32-.73,3.55-.54a132,132,0,0,0,19.95,1.61c.84-4.08-1.59-8-2.37-12.14a10.76,10.76,0,0,0-.8-3.08c-.94-1.8-3.06-2.63-5.05-3-3.59-.76-9.21-2.09-11.22,1.54C645.05,821.78,644.28,828.22,643.4,833.08Z" transform="translate(-50 -46.63)" fill="#404040"/>
    <path id="Trazado_36" data-name="Trazado 36" d="M716.49,817.65c-2.71,1.85-6.07,2.42-9.33,2.84s-6.61.74-9.57,2.19c-2.54,1.26-4.69,3.32-7.39,4.22a15.312,15.312,0,0,1-7.67.12c-3-.57-6.26-1.67-7.89-4.29-1.46-2.32-1.31-5.27-1.11-8,.24-3.09.47-6.2.69-9.3a4.4,4.4,0,0,1,.58-2.24c2.19-3.2,7.52,1.33,10.37,1.33,4.52,0,9.37-2.46,12.62-5.45a3.893,3.893,0,0,1,1-.74c1.29-.58,2.58.49,3.72,1.42l.39.31c2.64,2.09,6.18,2.52,9.44,3.37s6.75,2.55,7.76,5.77a4.563,4.563,0,0,1,.16.61C720.83,812.76,719,815.91,716.49,817.65Z" transform="translate(-50 -46.63)" fill="#3f3d56"/>
    <path id="Trazado_37" data-name="Trazado 37" d="M716.49,817.65c-2.71,1.85-6.07,2.42-9.33,2.84s-6.61.74-9.57,2.19c-2.54,1.26-4.69,3.32-7.39,4.22a15.312,15.312,0,0,1-7.67.12c-3-.57-6.26-1.67-7.89-4.29-1.46-2.32-1.31-5.27-1.11-8,.24-3.09.47-6.2.69-9.3a4.4,4.4,0,0,1,.58-2.24c2.19-3.2,7.52,1.33,10.37,1.33,4.52,0,9.37-2.46,12.62-5.45a3.893,3.893,0,0,1,1-.74c1.29-.58,2.58.49,3.72,1.42l.39.31c2.64,2.09,6.18,2.52,9.44,3.37s6.75,2.55,7.76,5.77a4.563,4.563,0,0,1,.16.61C720.83,812.76,719,815.91,716.49,817.65Z" transform="translate(-50 -46.63)" fill="#282828"/>
    <path id="Trazado_38" data-name="Trazado 38" d="M716.49,818.69c-2.71,1.85-6.07,2.43-9.33,2.85s-6.61.73-9.57,2.18c-2.54,1.26-4.69,3.32-7.39,4.22a15.311,15.311,0,0,1-7.67.12,12.6,12.6,0,0,1-7.89-5.33c-1.46-2.32-1.31-5.27-1.11-8,.24-3.09.47-6.2.69-9.3a4.4,4.4,0,0,1,.58-2.24c2.19-3.2,7.52,1.33,10.37,1.33,4.52,0,9.37-2.46,12.62-5.45a3.893,3.893,0,0,1,1-.74c1.29-.58,2.58.49,3.72,1.42a26.4,26.4,0,0,1-3.17,6.56,13.63,13.63,0,0,1-10,6.22c-2,.15-4.09-.25-6,.27s-3.77,2.52-3.08,4.42,3.06,2.25,5,2.36a22.38,22.38,0,0,0,8.21-.58c1.6-.53,3.07-1.41,4.62-2.06,6.62-2.74,15-1.21,20.46-5.85a13,13,0,0,1,1.67-1.28C721.67,812.8,719,817,716.49,818.69Z" transform="translate(-50 -46.63)" fill="#e8eaf2"/>
    <path id="Trazado_39" data-name="Trazado 39" d="M716.49,818.69c-2.71,1.85-6.07,2.43-9.33,2.85s-6.61.73-9.57,2.18c-2.54,1.26-4.69,3.32-7.39,4.22a15.311,15.311,0,0,1-7.67.12,12.6,12.6,0,0,1-7.89-5.33c-1.46-2.32-1.31-5.27-1.11-8,.24-3.09.47-6.2.69-9.3a4.4,4.4,0,0,1,.58-2.24c2.19-3.2,7.52,1.33,10.37,1.33,4.52,0,9.37-2.46,12.62-5.45a3.893,3.893,0,0,1,1-.74c1.29-.58,2.58.49,3.72,1.42a26.4,26.4,0,0,1-3.17,6.56,13.63,13.63,0,0,1-10,6.22c-2,.15-4.09-.25-6,.27s-3.77,2.52-3.08,4.42,3.06,2.25,5,2.36a22.38,22.38,0,0,0,8.21-.58c1.6-.53,3.07-1.41,4.62-2.06,6.62-2.74,15-1.21,20.46-5.85a13,13,0,0,1,1.67-1.28C721.67,812.8,719,817,716.49,818.69Z" transform="translate(-50 -46.63)" opacity="0.05"/>
    <path id="Trazado_40" data-name="Trazado 40" d="M644.64,616.07a40.77,40.77,0,0,0,5.58,30c1.55,2.4,3.37,4.66,4.54,7.27a33.763,33.763,0,0,1,1.77,5.77l5,20.8c1.36,5.62,2.73,11.34,2.32,17.11-.28,4-1.3,8.53,1.18,11.71a8.465,8.465,0,0,1,1.49,2.05,5.15,5.15,0,0,1,0,2.7c-2.54,15.11-4.43,30.9.16,45.51,4.17,13.25,4.41,27.93,7.95,41.35a9.24,9.24,0,0,0,2.19,4.59,7.27,7.27,0,0,0,3.3,1.56c5.22,1.25,10.73-.21,15.59-2.46,3.42-1.59,7.1-4.37,6.81-8.12-.14-1.79-1.18-3.36-1.89-5-1.39-3.23-1.5-6.83-1.88-10.33-.94-8.78-3.65-17.26-5.69-25.84s-3.44-17.57-1.71-26.23a229.79,229.79,0,0,1,16.87-51.9,6.27,6.27,0,0,1,1.55-2.32,16.872,16.872,0,0,0,2.19-1.49,6.662,6.662,0,0,0,1-2.72c.76-2.74,3-4.77,4.53-7.17,3.83-6.08,2.62-13.87,2.48-21.05-.14-7,.86-14-.28-20.92S714.65,607,708,604.88c-3.29-1.07-6.85-.82-10.29-.48C679.48,606.2,661.76,609.51,644.64,616.07Z" transform="translate(-50 -46.63)" fill="#343434"/>
    <path id="Trazado_41" data-name="Trazado 41" d="M644.64,617.07a40.77,40.77,0,0,0,5.58,30c1.55,2.4,3.37,4.66,4.54,7.27a33.763,33.763,0,0,1,1.77,5.77l5,20.8c1.36,5.62,2.73,11.34,2.32,17.11-.28,4-1.3,8.53,1.18,11.71a8.459,8.459,0,0,1,1.49,2.05,5.15,5.15,0,0,1,0,2.7c-2.54,15.11-4.43,30.9.16,45.51,4.17,13.25,4.41,27.93,7.95,41.35a9.24,9.24,0,0,0,2.19,4.59,7.27,7.27,0,0,0,3.3,1.56c5.22,1.25,10.73-.21,15.59-2.46,3.42-1.59,7.1-4.37,6.81-8.12-.14-1.79-1.18-3.36-1.89-5-1.39-3.23-1.5-6.83-1.88-10.33-.94-8.78-3.65-17.26-5.69-25.84s-3.44-17.57-1.71-26.23a229.79,229.79,0,0,1,16.87-51.9,6.27,6.27,0,0,1,1.55-2.32,16.861,16.861,0,0,0,2.19-1.49,6.661,6.661,0,0,0,1-2.72c.76-2.74,3-4.77,4.53-7.17,3.83-6.08,2.62-13.87,2.48-21.05-.14-7,.86-14-.28-20.92S714.65,608,708,605.88c-3.29-1.07-6.85-.82-10.29-.48C679.48,607.2,661.76,610.51,644.64,617.07Z" transform="translate(-50 -46.63)" fill="#fff" opacity="0.1"/>
    <path id="Trazado_42" data-name="Trazado 42" d="M718.92,659.86a44,44,0,0,1-.91,8.07q-4.83,27-10.28,54c-.32,1.56-.63,3.12-1.05,4.65a37.783,37.783,0,0,1-7,13.7c-15.15,18.89-16.46,46.32-24.68,69.1-.56,1.54-1.11,3.09-1.7,4.61a115.768,115.768,0,0,1-5.07,11.31,3.22,3.22,0,0,1-1,1.35,3.082,3.082,0,0,1-1.65.33,48.309,48.309,0,0,1-21.36-4.86,4.48,4.48,0,0,1-2.27-1.89,4.661,4.661,0,0,1-.24-2.17c.23-4.51.51-9.19,2.66-13.16a28.219,28.219,0,0,1,5.26-6.38,242.357,242.357,0,0,1,5.16-42.22c1.6-7.08,3.58-14.23,7.69-20.21,3-4.42,7.38-8.78,6.84-14.11-.23-2.34-1.21-5.25.69-6.62.83-.61,2.06-.69,2.63-1.55a3,3,0,0,0,.37-1.32,32.66,32.66,0,0,0-.68-10.93,58.8,58.8,0,0,1-1.63-7.13,9,9,0,0,1,1.79-6.88c.1-4.87,0-9.92.07-14.78a27.161,27.161,0,0,0-.69-8.25c-.36-1.27-.93-2.49-1.21-3.79-1-4.67,1.52-10.27-1.5-14-1.26-1.54-3.2-2.31-4.85-3.42a17.71,17.71,0,0,1-6.66-9.57,52.582,52.582,0,0,1-1.9-11.74,11.28,11.28,0,0,1,0-2.53,4.354,4.354,0,0,1,.34-1.27c.94-2.11,3.46-2.93,5.71-3.47a185.151,185.151,0,0,1,43.61-5.1c5.44-3.7,8.49-2.37,10.8,1.54a41.086,41.086,0,0,1,3.07,7.51c1,3.18,1.12,21,2.14,24.17C722.72,647,718.87,655.5,718.92,659.86Z" transform="translate(-50 -46.63)" fill="#545454"/>
    <path id="Trazado_43" data-name="Trazado 43" d="M620.68,497.92c-.4,2.8.94,5.55,1.09,8.38.13,2.47-.66,4.88-1.1,7.31-1.76,9.48,1.61,19.09,5,28.11a14.4,14.4,0,0,1,1.2,4.62c.09,2.94-1.6,5.64-2.07,8.55-1,6.11,3.53,11.85,3.63,18,0,2.85-.86,5.75-.14,8.5.47,1.84,1.62,3.43,2.43,5.14,1.45,3,1.84,6.5,3.22,9.57,2.49,5.55,7.84,9.18,12.94,12.51,2.89-1,6-2.11,7.62-4.72a11.63,11.63,0,0,0,1.33-4.14c1.1-6.33,1.06-12.79,1-19.21A118.6,118.6,0,0,0,656,564c-1-7-3.29-13.7-4.92-20.57-2-8.65-3.09-17.59-6.28-25.9-2.81-7.29-7.17-13.84-11.77-20.12-1.75-2.39-3.14-5.81-6.54-5.26a7.13,7.13,0,0,0-5.81,5.77Z" transform="translate(-50 -46.63)" fill="#282828"/>
    <path id="Trazado_44" data-name="Trazado 44" d="M620.68,495.92c-.4,2.8.94,5.55,1.09,8.38.13,2.47-.66,4.88-1.1,7.31-1.76,9.48,1.61,19.09,5,28.11a14.4,14.4,0,0,1,1.2,4.62c.09,2.94-1.6,5.64-2.07,8.55-1,6.11,3.53,11.85,3.63,18,0,2.85-.86,5.75-.14,8.5.47,1.84,1.62,3.43,2.43,5.14,1.45,3,1.84,6.5,3.22,9.57,2.49,5.55,7.84,9.18,12.94,12.51,2.89-1,6-2.11,7.62-4.72a11.63,11.63,0,0,0,1.33-4.14c1.1-6.33,1.06-12.79,1-19.21A118.6,118.6,0,0,0,656,562c-1-7-3.29-13.7-4.92-20.57-2-8.65-3.09-17.59-6.28-25.9-2.81-7.29-7.17-13.84-11.77-20.12-1.75-2.39-3.14-5.81-6.54-5.26a7.13,7.13,0,0,0-5.81,5.77Z" transform="translate(-50 -46.63)" opacity="0.05"/>
    <path id="Trazado_45" data-name="Trazado 45" d="M694.66,436.91a59.693,59.693,0,0,0-5.55,11.43,26.191,26.191,0,0,1-6.3.76c-8.25,0-14.08-4.69-18.93-10.62-.42-1.9-3-3.67-2.74-5.16.39-2,2.25-1.59,3.93-1.48a150.528,150.528,0,0,1,15.26,2C681.65,434,694.46,437.24,694.66,436.91Z" transform="translate(-50 -46.63)" opacity="0.1"/>
    <circle id="Elipse_35" data-name="Elipse 35" cx="26.41" cy="26.41" r="26.41" transform="translate(606.4 348.93)" fill="#ee8e9e"/>
    <path id="Trazado_46" data-name="Trazado 46" d="M716.18,611.19c-4.57-.27-9.18-.08-13.76.1a47.155,47.155,0,0,0-8.55.88c-3.47.79-6.71,2.37-10.13,3.36-5.48,1.59-11.26,1.66-16.93,2.22a94.332,94.332,0,0,0-11.09,1.74,4.348,4.348,0,0,1,.34-1.27c.94-2.11,3.46-2.93,5.71-3.47a185.148,185.148,0,0,1,43.61-5.1C710.82,606,713.87,607.28,716.18,611.19Z" transform="translate(-50 -46.63)" opacity="0.1"/>
    <path id="Trazado_47" data-name="Trazado 47" d="M698.18,465.21c-1.15,1.33-2.7,2.8-4.4,2.37a6.078,6.078,0,0,1-1.72-.92c-3-2-6.78-2.42-10.36-3a152.4,152.4,0,0,1-21.34-4.8,21.932,21.932,0,0,0-6.32-1.28c-4.47,0-8.44,3-11.24,6.48s-4.8,7.57-7.55,11.1c-2,2.52-4.3,4.74-6.13,7.35-4.62,6.59-5.62,15.19-4.42,23.15s4.37,15.47,7.53,22.88A78.483,78.483,0,0,0,638.37,541c-1.06,6-.5,13,2.38,18.4.93,1.77,2.08,3.49,2.39,5.47a13.853,13.853,0,0,1-.16,4l-1.35,9.56c-.41,2.91-.82,5.82-1.35,8.72-1,5.29-2.28,11,.17,15.82,2.93,5.74-.15,13.09.62,19.49a97.8,97.8,0,0,1,25.74-6.11c5.67-.56,11.45-.63,16.93-2.22,3.42-1,6.66-2.57,10.13-3.37a46.991,46.991,0,0,1,8.55-.87c6.33-.25,12.7-.51,19,.42.5.08,1.12.12,1.43-.29a1.47,1.47,0,0,0,.19-.75,12.63,12.63,0,0,0-1.62-6.72c-.8-1.41-1.91-2.79-1.88-4.41a6.482,6.482,0,0,1,.55-2.19l2.77-7.4c2.35-6.25,1.23-13.51,2.45-20.07a117.46,117.46,0,0,0,1.82-15.53c.23-4.45.09-9.27-2.6-12.83a14.67,14.67,0,0,1-2-2.83,8.34,8.34,0,0,1-.48-3.37q-.09-13.36.73-26.72c-2.34-4.21-4.79-8.51-7.13-12.72-2.73-4.9-5.49-9.9-6.59-15.4-.73-3.63-.71-7.38-1.23-11.05a4.9,4.9,0,0,0-.93-2.59,4.69,4.69,0,0,0-3.76-1.11,16.439,16.439,0,0,0-4.96.88Z" transform="translate(-50 -46.63)" fill="#282828"/>
    <path id="Trazado_48" data-name="Trazado 48" d="M794.87,449.34a11.5,11.5,0,0,1-5.72,2.33c-2.72.18-8.51-1.42-10.2-3.75a6.769,6.769,0,0,1-1-3.91,4.916,4.916,0,0,1,1.14-.22,29.88,29.88,0,0,1,8.86.36c2.88.7,5.66,2.45,6.87,5.16Z" transform="translate(-50 -46.63)" opacity="0.1"/>
    <path id="Trazado_49" data-name="Trazado 49" d="M707,506.46c1.61,2,3.28,4.06,5.56,5.25,2.63,1.36,5.72,1.39,8.67,1.33a208,208,0,0,0,36.23-4,22.815,22.815,0,0,0,4-1.07,20.6,20.6,0,0,0,4-2.52c3.93-2.82,7.92-5.7,10.91-9.51a32.05,32.05,0,0,0,6.46-15.85c2.84-2.61,4.35-6.34,5.77-9.93a15.24,15.24,0,0,0,1.32-4.82c.07-1.71-1.06-3.5-.74-5.18a13.64,13.64,0,0,1,4.19-7.54,2.74,2.74,0,0,0,1-1.33,2.1,2.1,0,0,0-.23-1.29c-1.22-2.71-4-4.45-6.88-5.16a29.609,29.609,0,0,0-8.87-.36,20.067,20.067,0,0,0-2.9.78l-2.07,5.43a6.88,6.88,0,0,1-1.35,2.48,12.537,12.537,0,0,1-1.46,1.15,8.38,8.38,0,0,0-2.91,7.33,7.88,7.88,0,0,0-4.66,9.72,9.3,9.3,0,0,0-6.81,6,4.45,4.45,0,0,1-.89,1.87A3.66,3.66,0,0,1,753,480c-2.34.14-4.38,2-6.49,1a13.29,13.29,0,0,0-7.71-1.08,5.77,5.77,0,0,1-1.65.15,4.43,4.43,0,0,1-1.35-.47,10.72,10.72,0,0,0-3.06-1.2,2.84,2.84,0,0,0-2.9,1.12c-.74-.81-1.18-1.85-1.85-2.72a3,3,0,0,0-2.82-1.35c.7-.62,0-1.87-.93-2.1a12.66,12.66,0,0,0-2.81.1c-2.44,0-4.32-2.23-6.69-2.81-2.18-.53-5.09.11-6.21-1.84-.39-.69-.47-1.63-1.14-2a2.2,2.2,0,0,0-1.48-.17,14.241,14.241,0,0,0-4.45,1.35c-2.29,9-1.09,18.24.65,27.3A24.07,24.07,0,0,0,707,506.46Z" transform="translate(-50 -46.63)" fill="#282828"/>
    <path id="Trazado_50" data-name="Trazado 50" d="M706.93,538.51l-11.37,22.94c1.23-2.13,3.82-3,5.87-4.31A15.54,15.54,0,0,0,707,549.6a47.141,47.141,0,0,0,2.15-9.29c.23-1.45.71-3.49,0-4.81C707.89,535.77,707.47,537.44,706.93,538.51Z" transform="translate(-50 -46.63)" opacity="0.1"/>
    <path id="Trazado_51" data-name="Trazado 51" d="M674.21,558c-2.57,2.54-5.71,4.41-8.53,6.66-6.6,5.26-11.3,12.46-15.89,19.53a30.768,30.768,0,0,0-3.25,5.92c.54.46,1.34,0,1.88-.49l8.93-7.84a20.181,20.181,0,0,0,3-3c1.55-2.09,2.24-4.69,3.65-6.88a26.84,26.84,0,0,1,5.43-5.53c2.05-1.76,11.47-9.73,9.18-12.83C676.92,554.34,675.56,556.64,674.21,558Z" transform="translate(-50 -46.63)" opacity="0.1"/>
    <path id="Trazado_52" data-name="Trazado 52" d="M693.72,458.58a26.78,26.78,0,0,0-9.45-3.11,20,20,0,0,0-6-.43c-1.86.23-3.65.95-5.52,1-2.63.15-5.14-.92-7.68-1.61s-5.47-1-7.6.57a3.29,3.29,0,0,1-1.66.88,3,3,0,0,1-1.71-.84,9.74,9.74,0,0,0-12.14.64c-4.84,4.54-4.29,13.41-10,16.86-1.56,1-3.56,1.45-4.48,3a12,12,0,0,1-.77,1.46,4,4,0,0,1-1.36,1,26.43,26.43,0,0,0-4.68,2.69,6.66,6.66,0,0,0-2.69,4.51,8.53,8.53,0,0,0,.82,3.79,35.62,35.62,0,0,0,34.61,22.13,5.42,5.42,0,0,0,3.63-1.13,6.929,6.929,0,0,0,1.27-2.09c2.67-5.59,7.68-9.72,10.86-15,1.89-3.17,3.11-6.72,5.09-9.84,3-4.73,7.54-8.23,12-11.62,2.52-1.91,5.31-3.92,8.47-3.79,2.81.12,4.86.27,3.82-3.17a11,11,0,0,0-4.83-5.9Z" transform="translate(-50 -46.63)" fill="#262626"/>
    <path id="Trazado_53" data-name="Trazado 53" d="M693.72,458.58a26.78,26.78,0,0,0-9.45-3.11,20,20,0,0,0-6-.43c-1.86.23-3.65.95-5.52,1-2.63.15-5.14-.92-7.68-1.61s-5.47-1-7.6.57a3.29,3.29,0,0,1-1.66.88,3,3,0,0,1-1.71-.84,9.74,9.74,0,0,0-12.14.64c-4.84,4.54-4.29,13.41-10,16.86-1.56,1-3.56,1.45-4.48,3a12,12,0,0,1-.77,1.46,4,4,0,0,1-1.36,1,26.43,26.43,0,0,0-4.68,2.69,6.66,6.66,0,0,0-2.69,4.51,8.53,8.53,0,0,0,.82,3.79,35.62,35.62,0,0,0,34.61,22.13,5.42,5.42,0,0,0,3.63-1.13,6.929,6.929,0,0,0,1.27-2.09c2.67-5.59,7.68-9.72,10.86-15,1.89-3.17,3.11-6.72,5.09-9.84,3-4.73,7.54-8.23,12-11.62,2.52-1.91,5.31-3.92,8.47-3.79,2.81.12,4.86.27,3.82-3.17a11,11,0,0,0-4.83-5.9Z" transform="translate(-49 -46.63)" opacity="0.05"/>
    <path id="Trazado_54" data-name="Trazado 54" d="M707.47,841.36c-1.92,1.79-4.55,2.57-7.1,3.12a127.7,127.7,0,0,1-17.67,2.19l-5.77.44c-5.63.43-11.27.86-16.92.88a117.166,117.166,0,0,1-20.82-1.8,2.28,2.28,0,0,1-1.65-.8,2.241,2.241,0,0,1-.25-1.31,100.74,100.74,0,0,1,2.56-20.9c.65-2.81,5.7,3.5,5.93,3.77a5.76,5.76,0,0,0,4.59,2.43c5.81.32,12.32-3.21,16.93-6.35a22.187,22.187,0,0,1,3.14-1.95,9.193,9.193,0,0,1,2.54-.72,15.28,15.28,0,0,1,8.64,1.75c3.47,1.72,6.51,4.19,10,6a28.062,28.062,0,0,0,8.92,2.82c3.14.43,6.9.64,8.51,3.36h0C710.33,836.54,709.37,839.58,707.47,841.36Z" transform="translate(-50 -46.63)" fill="#282828"/>
    <path id="Trazado_55" data-name="Trazado 55" d="M707.47,842.4c-1.92,1.79-4.55,2.57-7.1,3.12a127.7,127.7,0,0,1-17.67,2.19l-5.77.44c-5.63.43-11.27.86-16.92.88a116.237,116.237,0,0,1-20.82-1.8,2.269,2.269,0,0,1-1.65-.79,9.261,9.261,0,0,1-1.29-2.36c.12-7,2-14.05,3.6-20.9.65-2.81,5.7,3.5,5.93,3.77a5.76,5.76,0,0,0,4.59,2.43c5.81.32,12.32-3.21,16.93-6.35a22.178,22.178,0,0,1,3.14-1.95,9.192,9.192,0,0,1,2.54-.72c-.75,4.18-6.74,9.23-9.84,10.77-6.26,3.11-13.7,1.55-20.68,1.92a3,3,0,0,0-1.47.35c-.83.56-.88,1.75-.86,2.75.06,1.66.27,3.62,1.72,4.46a4.94,4.94,0,0,0,2.32.49,327.906,327.906,0,0,0,51.57-1.81,28.234,28.234,0,0,0,8.4-1.87,21.445,21.445,0,0,0,4.87-3.14C711.21,836,709.37,840.62,707.47,842.4Z" transform="translate(-50 -46.63)" fill="#e8eaf2"/>
    <path id="Trazado_56" data-name="Trazado 56" d="M693.09,421.69c-.1,2.73,1.76,8-3.35,6.55-3-.88-3.9-4.49-7.76-3.69s-4.76,5.57-6.06,8.68a16.59,16.59,0,0,1-12,9.72,7.26,7.26,0,0,1-3.31,0c-2.49-.71-3.91-3.28-4.93-5.66a44.077,44.077,0,0,1-2.18-6.22,25.31,25.31,0,0,1-.79-4.56h0a19.476,19.476,0,0,1,0-3.15c.46-6.21,4-11.87,8.52-16.15s10-7.38,15.45-10.43a22.9,22.9,0,0,1,5.7-2.54,19.21,19.21,0,0,1,6-.24,20.85,20.85,0,0,1,7.66,1.8,10.708,10.708,0,0,1,2.69,1.89,8.11,8.11,0,0,1,2.34,3.89c1,4-1.58,7.63-3.66,10.8C695.51,415.19,693.22,418.17,693.09,421.69Z" transform="translate(-50 -46.63)" fill="#242424"/>
    <path id="Trazado_57" data-name="Trazado 57" d="M779,480.3c-1.09-2.75-5.67-10.36-4.35-13a33.766,33.766,0,0,1,3.49,6.24C779,475.69,778.32,478.55,779,480.3Z" transform="translate(-50 -46.63)" opacity="0.1"/>
    <path id="Trazado_58" data-name="Trazado 58" d="M697.47,412.37c2.08-3.17,4.64-6.79,3.66-10.8a8.35,8.35,0,0,0-3-4.44,7.27,7.27,0,0,1,.76,1.87c1,4-1.58,7.62-3.66,10.8-1.85,2.82-4.14,5.81-4.28,9.32-.1,2.73,1.77,8-3.34,6.55-3-.88-3.9-4.49-7.77-3.69s-4.75,5.56-6.06,8.68a16.57,16.57,0,0,1-12,9.72,7.26,7.26,0,0,1-3.31,0,5.051,5.051,0,0,1-1.56-.77,6.76,6.76,0,0,0,3.77,3.34,7.44,7.44,0,0,0,3.32,0,16.63,16.63,0,0,0,12-9.73c1.31-3.12,2.16-7.86,6.06-8.67s4.72,2.8,7.77,3.68c5.11,1.48,3.24-3.82,3.34-6.55C693.33,418.18,695.63,415.19,697.47,412.37Z" transform="translate(-50 -46.63)" opacity="0.1"/>
    <path id="Trazado_59" data-name="Trazado 59" d="M698.6,406.94a21.84,21.84,0,0,1-1.56,2.24,26.575,26.575,0,0,1-3.61,3.74c-.79.68-1.6,1.31-2.44,1.91a38.463,38.463,0,0,1-4.93,2.95,91.473,91.473,0,0,1-15.78,5.65l-10.54,3.07c-1.3,1-3.67,2.74-6.28,4.57a25.3,25.3,0,0,1-.79-4.56h0a19.476,19.476,0,0,1,0-3.15c.46-6.21,4-11.87,8.52-16.15s10-7.38,15.45-10.43a22.9,22.9,0,0,1,5.7-2.54,19.209,19.209,0,0,1,6-.24,20.851,20.851,0,0,1,7.66,1.8,10.711,10.711,0,0,1,2.69,1.89,10.141,10.141,0,0,1,1.35,2.86C700.7,402.7,699.78,405,698.6,406.94Z" transform="translate(-50 -46.63)" opacity="0.1"/>
    <path id="Trazado_60" data-name="Trazado 60" d="M698.6,406.23a21.84,21.84,0,0,1-1.56,2.24,26.574,26.574,0,0,1-3.61,3.74c-.79.68-1.6,1.31-2.44,1.91a39.663,39.663,0,0,1-4.93,2.95,91.477,91.477,0,0,1-15.78,5.65l-10.54,3.06c-3.68,2.79-16,11.91-18.07,10.77-2.44-1.34,10.93-10.81,10.93-10.81l.61.47c-2-1.23-3-4.08-3.42-6.55-.78-4.42-1.15-9-.1-13.37s3.67-8.51,7.66-10.55c1.77-.92,3.92-1.53,5.2-2.93a4.4,4.4,0,0,0,.51-.69,2.076,2.076,0,0,0,.2-.36,4.32,4.32,0,0,1,.56-1.09c.73-.84,2.06-.59,3.17-.45h.36a5.688,5.688,0,0,0,.59,0c4,.09,7.81-2.12,11.82-2.12,4.39,0,8.13,2.54,12,4.28.78.35,1.52.67,2.22,1,2.8,1.3,4.9,2.69,6,6.38C700.7,402,699.78,404.31,698.6,406.23Z" transform="translate(-50 -46.63)" fill="#f9a826"/>
    <path id="Trazado_61" data-name="Trazado 61" d="M667.94,390.28a1.8,1.8,0,0,1-.42,2.32,3.2,3.2,0,0,1-1.66.59,11.2,11.2,0,0,1-1.3.1,3.579,3.579,0,0,1-1.71-.29,2.2,2.2,0,0,1-.3-.19,4.39,4.39,0,0,0,.51-.69c.1.08.2.06.59,0a9.13,9.13,0,0,0,2.14-.36,2.379,2.379,0,0,0,.8-.39,2.481,2.481,0,0,0,.76-1.15Z" transform="translate(-50 -46.63)" opacity="0.1"/>
    <path id="Trazado_62" data-name="Trazado 62" d="M652.86,425.64a4.871,4.871,0,0,0,1.83.68,8.287,8.287,0,0,0,1.41.23,7.84,7.84,0,0,0,3.45-1" transform="translate(-50 -46.63)" opacity="0.1"/>
  </g>
</svg>
