<svg xmlns="http://www.w3.org/2000/svg" width="784.399" height="733.605" viewBox="0 0 784.399 733.605">
  <g id="feature-icon-02" transform="translate(0.001 -0.002)">
    <path id="Trazado_1" data-name="Trazado 1" d="M832.546,604.414s97.041,5.017,74.438,35.565-81.995-17.92-81.995-17.92Z" transform="translate(-207.801 -83.197)" fill="#ffb8b8"/>
    <path id="Trazado_2" data-name="Trazado 2" d="M653.717,313.448l19.752,4.938s11.522,34.566,19.752,65.84,24.69,125.1,24.69,125.1l127.61,89.433L830.3,632.8l-170-67L622.443,417.147Z" transform="translate(-207.801 -83.197)" fill="#242424"/>
    <path id="Trazado_3" data-name="Trazado 3" d="M464.5,291.607l-7.362,154.165L472.5,491.607l-45-33Z" opacity="0.2"/>
    <path id="Trazado_4" data-name="Trazado 4" d="M698.982,648.411s21.4,57.61,24.69,97.114,6.584,70.778,6.584,70.778H629.85L610.1,786.676V816.3H493.231s-32.92-106.99-19.752-120.158S611.744,627.01,611.744,627.01Z" transform="translate(-207.801 -83.197)" fill="#343434"/>
    <rect id="Rectángulo_1" data-name="Rectángulo 1" width="581" height="2" transform="translate(101.5 731.607)" fill="#404040"/>
    <circle id="Elipse_1" data-name="Elipse 1" cx="62.548" cy="62.548" r="62.548" transform="translate(302.713 42.607)" fill="#ffb8b8"/>
    <path id="Trazado_5" data-name="Trazado 5" d="M525.328,214.688l-4.938,72.424,62.548,83.946,31.275-79.009s-27.982-18.106-11.522-55.964Z" transform="translate(-207.801 -83.197)" fill="#ffb8b8"/>
    <path id="Trazado_6" data-name="Trazado 6" d="M708.031,662.4c0,14.82-41.15,37.86-41.15,37.86v8.23l-16.46,8.23-36.21-72.42-9.87,79s-72.43,11.53-95.47,0-34.57-6.58-67.49-18.1,13.17-166.25,13.17-166.25l-32.92-238.67,71.92-35.96,3.79-1.9,9.89-1.82,15.16-2.8,50.67,34.25,4.08,21.4,2.51,13.17,13.16-14.82,9.94-32.69,70.72,39.28L653.721,476.4S708.031,647.59,708.031,662.4Z" transform="translate(-207.801 -83.197)" fill="#242424"/>
    <path id="Trazado_7" data-name="Trazado 7" d="M466.072,713.428s75.716,60.9,39.5,72.424-55.96-62.552-55.96-62.552Z" transform="translate(-207.801 -83.197)" fill="#ffb8b8"/>
    <path id="Trazado_8" data-name="Trazado 8" d="M438.09,303.572l-16.46-3.292s-24.69,13.168-26.336,39.5S372.25,550.473,372.25,550.473l69.132,186,55.964-21.4L443.028,540.6l41.15-151.433Z" transform="translate(-207.801 -83.197)" fill="#242424"/>
    <circle id="Elipse_2" data-name="Elipse 2" cx="6" cy="6" r="6" transform="translate(366.5 258.607)" fill="#f9a826"/>
    <circle id="Elipse_3" data-name="Elipse 3" cx="6" cy="6" r="6" transform="translate(366.5 297.607)" fill="#f9a826"/>
    <circle id="Elipse_4" data-name="Elipse 4" cx="6" cy="6" r="6" transform="translate(400.5 554.607)" fill="#f9a826"/>
    <path id="Trazado_9" data-name="Trazado 9" d="M520.254,124.274l-11.562-4.629s24.175-26.617,57.811-24.3l-9.46-10.415s23.125-9.258,44.147,15.044c11.051,12.775,23.837,27.791,31.808,44.707h12.383l-5.168,11.379L658.3,167.437l-18.566-2.044a63.585,63.585,0,0,1,.5,18.875,24.421,24.421,0,0,1-8.943,15.976h0s-14.339-29.681-14.339-34.31v11.572s-11.562-10.415-11.562-17.358l-6.307,8.1h-42.04l6.307-10.415L539.174,161.3l9.46-12.73L511.2,201.14S489.771,141.632,520.254,124.274Z" transform="translate(-207.801 -83.197)" fill="#242424"/>
    <path id="Trazado_19" data-name="Trazado 19" d="M100,0A100,100,0,1,1,0,100,100,100,0,0,1,100,0Z" transform="translate(584.398 283.545)" fill="#404040"/>
    <circle id="Elipse_6" data-name="Elipse 6" cx="86" cy="86" r="86" transform="translate(598.398 297.545)" opacity="0.1"/>
    <path id="Trazado_10" data-name="Trazado 10" d="M888.078,517.49V504.973c-6.327-.123-12.873-2.355-16.691-5.453l2.618-8.3a26.682,26.682,0,0,0,15.709,5.328c7.746,0,12.982-5.081,12.982-12.145,0-6.816-4.255-11.03-12.328-14.748-11.128-4.957-18-10.658-18-21.44,0-10.287,6.437-18.094,16.473-19.953v-12.52H895.6v12.021a26.543,26.543,0,0,1,14.182,4.337l-2.728,8.18a24.106,24.106,0,0,0-13.745-4.214c-8.4,0-11.564,5.7-11.564,10.658,0,6.444,4.036,9.666,13.528,14.129,11.236,5.2,16.909,11.649,16.909,22.679,0,9.79-6,18.962-17.237,21.068v12.89Z" transform="translate(-207.801 -83.197)" fill="#f9a826"/>
    <path id="Trazado_11" data-name="Trazado 11" d="M250.005,504.87,290,629.8l-32-130Z" opacity="0.2"/>
    <path id="Trazado_12" data-name="Trazado 12" d="M253.894,344H228.508a4.178,4.178,0,0,1-4.173-4.173V303.333a4.178,4.178,0,0,1,4.173-4.173h25.387a4.178,4.178,0,0,1,4.173,4.173v36.493A4.178,4.178,0,0,1,253.894,344Zm-25.387-42.84a2.176,2.176,0,0,0-2.173,2.173v36.493A2.176,2.176,0,0,0,228.508,342h25.387a2.176,2.176,0,0,0,2.173-2.173V303.333a2.176,2.176,0,0,0-2.173-2.173Z" transform="translate(-207.801 -83.197)" fill="#404040"/>
    <path id="Trazado_13" data-name="Trazado 13" d="M300.264,344H277.338a5.41,5.41,0,0,1-5.4-5.4V264.9a5.41,5.41,0,0,1,5.4-5.4h22.926a5.41,5.41,0,0,1,5.4,5.4v73.7a5.41,5.41,0,0,1-5.4,5.4Zm-22.926-82.507a3.408,3.408,0,0,0-3.4,3.4v73.7a3.408,3.408,0,0,0,3.4,3.4h22.926a3.408,3.408,0,0,0,3.4-3.4V264.9a3.408,3.408,0,0,0-3.4-3.4Z" transform="translate(-207.801 -83.197)" fill="#404040"/>
    <path id="Trazado_14" data-name="Trazado 14" d="M346.979,344H325.824a6.3,6.3,0,0,1-6.289-6.289V229.289A6.3,6.3,0,0,1,325.824,223h21.155a6.3,6.3,0,0,1,6.289,6.289V337.711A6.3,6.3,0,0,1,346.979,344ZM325.824,225a4.294,4.294,0,0,0-4.289,4.289V337.711A4.294,4.294,0,0,0,325.824,342h21.155a4.294,4.294,0,0,0,4.289-4.289V229.289A4.294,4.294,0,0,0,346.979,225Z" transform="translate(-207.801 -83.197)" fill="#404040"/>
    <rect id="Rectángulo_2" data-name="Rectángulo 2" width="19.04" height="30.94" transform="translate(23.88 222.913)" fill="#f9a826"/>
    <rect id="Rectángulo_3" data-name="Rectángulo 3" width="19.04" height="70.21" transform="translate(71.48 183.643)" fill="#f9a826"/>
    <rect id="Rectángulo_4" data-name="Rectángulo 4" width="19.04" height="106.703" transform="translate(119.08 147.15)" fill="#f9a826"/>
    <path id="Trazado_15" data-name="Trazado 15" d="M930.8,229h-133a1,1,0,0,1-1-1V93a1,1,0,0,1,2,0V227h132a1,1,0,0,1,0,2Z" transform="translate(-207.801 -83.197)" fill="#404040"/>
    <path id="Trazado_16" data-name="Trazado 16" d="M366.8,358h-158a1,1,0,0,1-1-1V200a1,1,0,0,1,2,0V356h157a1,1,0,0,1,0,2Z" transform="translate(-207.801 -83.197)" fill="#404040"/>
    <path id="Trazado_17" data-name="Trazado 17" d="M843.7,216.467H818.313a4.178,4.178,0,0,1-4.174-4.173V175.8a4.178,4.178,0,0,1,4.174-4.173H843.7a4.178,4.178,0,0,1,4.173,4.173v36.493a4.178,4.178,0,0,1-4.172,4.173Zm-25.387-42.84a2.176,2.176,0,0,0-2.174,2.173v36.494a2.176,2.176,0,0,0,2.174,2.173H843.7a2.176,2.176,0,0,0,2.173-2.173V175.8a2.176,2.176,0,0,0-2.173-2.173Z" transform="translate(-207.801 -83.197)" fill="#404040"/>
    <path id="Trazado_18" data-name="Trazado 18" d="M895.689,216.467H872.323a5.19,5.19,0,0,1-5.184-5.184v-66.1A5.189,5.189,0,0,1,872.323,140h23.366a5.189,5.189,0,0,1,5.184,5.184v66.1a5.19,5.19,0,0,1-5.184,5.184ZM872.323,142a3.187,3.187,0,0,0-3.184,3.184v66.1a3.187,3.187,0,0,0,3.184,3.184h23.366a3.187,3.187,0,0,0,3.184-3.184v-66.1A3.187,3.187,0,0,0,895.689,142Z" transform="translate(-207.801 -83.197)" fill="#404040"/>
    <rect id="Rectángulo_5" data-name="Rectángulo 5" width="19.04" height="30.94" transform="translate(613.228 95.727)" fill="#f9a826"/>
    <rect id="Rectángulo_6" data-name="Rectángulo 6" width="19.04" height="59.864" transform="translate(666.685 65.105)" fill="#f9a826"/>
    <circle id="Elipse_7" data-name="Elipse 7" cx="9" cy="9" r="9" transform="translate(614 59.803)" fill="#f9a826"/>
    <circle id="Elipse_8" data-name="Elipse 8" cx="9" cy="9" r="9" transform="translate(667 25.803)" fill="#f9a826"/>
  </g>
</svg>
