<svg width="736" height="435" viewBox="0 0 736 435" fill="none" xmlns="http://www.w3.org/2000/svg">
<g clip-path="url(#clip0)">
<path fill-rule="evenodd" clip-rule="evenodd" d="M398.972 235.965C402.594 231.652 407.254 228.518 412.283 226.437C414.789 225.357 417.447 224.659 420.142 224.159L422.179 223.851L424.176 223.675C424.843 223.601 425.506 223.608 426.17 223.573C426.836 223.543 427.5 223.525 428.16 223.539C438.8 223.586 448.726 226.381 458.38 228.181C477.558 231.932 497.634 230.548 516.315 224.698C534.964 218.753 552.174 208.195 565.558 193.814L566.832 192.486L568.043 191.102L570.462 188.329L572.752 185.449L573.896 184.008L574.977 182.518L577.13 179.532L579.148 176.454C580.537 174.428 581.691 172.258 582.962 170.159C585.29 165.842 587.537 161.465 589.324 156.893C590.314 154.645 591.054 152.303 591.906 150.002C592.301 148.841 592.63 147.66 592.996 146.49C593.353 145.316 593.73 144.148 594.004 142.953C595.368 137.543 597.09 137.86 595.821 143.414C595.569 144.638 595.213 145.835 594.877 147.038C594.531 148.238 594.223 149.452 593.846 150.642C593.037 153.007 592.333 155.412 591.382 157.728C589.668 162.435 587.488 166.957 585.216 171.428C583.974 173.605 582.844 175.853 581.478 177.963L579.492 181.166L577.368 184.28L576.298 185.835L575.163 187.342L572.889 190.357L570.482 193.269L569.273 194.722L568.002 196.122C554.639 211.257 537.088 222.713 517.839 229.34C498.577 235.885 477.539 237.78 457.333 234.121C447.328 232.366 437.682 229.828 428.195 229.87C423.423 229.863 418.952 230.556 414.732 232.336C410.532 234.068 406.684 236.705 403.868 240.048C401.183 243.297 399.905 246.079 398.954 248.067C398.432 249.059 398.107 249.863 397.707 250.418C397.313 250.975 396.905 251.285 396.509 251.296C396.112 251.307 395.727 251.014 395.378 250.365C395.037 249.716 394.669 248.701 394.654 247.324C394.636 246.955 394.628 246.586 394.629 246.216C394.63 245.823 394.711 245.426 394.768 244.996C394.837 244.545 394.914 244.095 395 243.647C395.088 243.173 395.274 242.717 395.431 242.219C396.038 240.214 397.271 238.093 398.972 235.965" fill="url(#paint0_linear)"/>
<path fill-rule="evenodd" clip-rule="evenodd" d="M560.133 320.272C558.994 319.051 557.446 318.29 555.783 318.135C554.838 318.1 554.879 318.535 555.736 318.595C555.914 318.617 556.09 318.649 556.266 318.687C555.877 318.611 555.481 318.572 555.084 318.571H555.081C555.076 318.38 554.891 318.196 554.485 318.072C554.279 318.01 554.02 318 553.706 318C553.4 318.034 553.032 318.077 552.646 318.233C551.011 318.834 549.654 320.014 548.831 321.549C548.007 323.079 547.795 324.912 548.199 326.594C548.606 328.294 549.629 329.782 551.069 330.772C552.499 331.751 554.241 332.167 555.959 331.939C557.659 331.727 559.249 330.834 560.343 329.532C561.449 328.22 562.038 326.549 561.998 324.833C561.957 323.135 561.293 321.512 560.133 320.272" fill="white" fill-opacity="0.32"/>
<path fill-rule="evenodd" clip-rule="evenodd" d="M577.917 276.164C577.453 276.153 577.489 276.547 577.874 276.582C577.908 276.586 577.941 276.6 577.974 276.606C577.843 276.587 577.71 276.576 577.577 276.575C577.574 276.401 577.488 276.231 577.284 276.109C577.081 275.995 576.744 275.944 576.347 276.089C575.521 276.388 574.835 276.982 574.419 277.756C574.006 278.536 573.893 279.44 574.102 280.298C574.307 281.149 574.821 281.894 575.544 282.387C576.267 282.88 577.148 283.086 578.015 282.966C578.869 282.847 579.648 282.413 580.198 281.749C580.742 281.099 581.028 280.246 580.998 279.412C580.969 278.577 580.634 277.782 580.055 277.179C579.491 276.59 578.73 276.229 577.917 276.164" fill="white" fill-opacity="0.08"/>
<path fill-rule="evenodd" clip-rule="evenodd" d="M109 333.481L136.43 317L152.91 344.43L125.481 360.91L109 333.481Z" fill="#F9A826" fill-opacity="0.16"/>
<path fill-rule="evenodd" clip-rule="evenodd" d="M362.386 0.000610352L507.829 262.387L245.443 407.829L99.9998 145.443L362.386 0.000610352Z" fill="url(#paint1_linear)"/>
<path fill-rule="evenodd" clip-rule="evenodd" d="M431.145 242.661C440.262 232.001 451.25 223.097 463.568 216.389C475.852 209.674 489.387 205.261 503.265 203.392C517.18 201.507 531.324 202.183 544.996 205.388C558.649 208.546 571.666 214.353 583.283 222.18C594.896 230.014 605.103 239.967 613.099 251.489C621.137 263.022 627.016 275.918 630.449 289.55C633.879 303.143 634.825 317.363 633.184 331.291C633.108 331.922 633.022 332.552 632.936 333.18C632.68 332.825 632.379 332.43 632.021 331.99C631.068 330.798 630.028 329.679 628.909 328.642C627.585 327.383 626.038 325.906 624.092 324.436C623.099 323.665 622.125 322.868 621.114 322.117L618.032 319.937L616.487 318.851L614.892 317.839L611.7 315.816C607.338 313.301 602.908 310.868 598.254 308.917C589.029 304.822 579.221 302.091 569.254 300.49C549.292 297.442 528.51 299.471 509.62 306.679C490.675 313.746 473.766 325.941 460.859 341.379C447.959 356.838 439.139 375.604 435.539 395.284C435.443 395.851 435.358 396.419 435.286 396.988C434.911 396.598 434.537 396.21 434.16 395.805C424.698 385.573 417.134 373.592 411.917 360.656C406.679 347.68 403.831 333.864 403.511 319.874C402.846 291.937 412.901 263.888 431.145 242.661V242.661ZM400.346 319.805C400.643 334.199 403.549 348.419 408.924 361.774C414.28 375.094 422.066 387.437 431.823 397.973C436.557 403.051 441.183 407.01 445.281 410.2C449.443 413.316 453.083 415.668 456.101 417.352C457.618 418.183 458.941 418.914 460.099 419.492C461.08 419.947 462.069 420.382 463.067 420.797C464.668 421.452 465.511 421.683 465.6 421.507C465.692 421.332 465.031 420.746 463.622 419.772C462.918 419.285 462.026 418.7 460.95 418.018L457.263 415.504C454.455 413.602 451.038 411.096 447.085 407.922C443.713 405.106 439.933 401.779 435.988 397.722C436.137 397.115 436.295 396.37 436.46 395.459C440.254 375.942 449.25 357.497 462.164 342.439C475.09 327.397 491.849 315.668 510.457 308.975C529.018 302.137 549.302 300.372 568.732 303.46C578.435 305.088 587.972 307.784 596.945 311.799C601.476 313.709 605.783 316.091 610.034 318.54L613.143 320.513L614.696 321.499L616.203 322.558L619.21 324.68C620.195 325.41 621.146 326.187 622.116 326.937C624.013 328.363 625.579 329.722 626.986 330.822L630.515 333.569C631.406 334.235 632.122 334.702 632.671 334.993C630.732 347.623 626.665 359.909 620.75 371.231C614.307 383.693 605.468 394.879 594.977 404.164C584.48 413.45 572.274 420.789 559.161 425.737C546.051 430.698 532.031 433.202 518.03 433.166C503.992 433.125 490.078 430.532 476.968 425.515C475.119 424.764 473.499 424.107 472.113 423.546C470.719 422.996 469.601 422.439 468.674 422.063C466.835 421.28 465.881 420.95 465.831 421.051C465.78 421.152 466.634 421.685 468.409 422.632C469.303 423.088 470.397 423.715 471.778 424.318C473.159 424.921 474.773 425.622 476.63 426.39C489.855 431.51 503.9 434.182 518.082 434.276C532.232 434.366 546.414 431.881 559.697 426.92C573.022 421.945 585.333 414.591 596.03 405.215C606.687 395.849 615.696 384.548 622.277 371.94C628.908 359.366 633.303 345.594 635.055 331.455C636.784 317.316 635.881 302.859 632.454 289.021C629.018 275.132 623.092 261.98 614.963 250.206C606.87 238.434 596.51 228.237 584.698 220.189C572.887 212.146 559.63 206.165 545.691 202.869C531.725 199.527 517.264 198.769 503.025 200.632C488.769 202.484 474.974 206.935 462.324 213.765C449.661 220.591 438.354 229.675 428.962 240.571C410.173 262.288 399.712 291.054 400.346 319.805" fill="url(#paint2_linear)"/>
<path fill-rule="evenodd" clip-rule="evenodd" d="M579.572 284.286L552.036 263.536L572.786 236L600.322 256.75L579.572 284.286Z" fill="#F9A826" fill-opacity="0.72"/>
<path fill-rule="evenodd" clip-rule="evenodd" d="M579.536 284.454L552 263.704L600.286 256.921L579.536 284.454Z" fill="url(#paint3_linear)"/>
</g>
<defs>
<linearGradient id="paint0_linear" x1="596.049" y1="139" x2="590.991" y2="264.08" gradientUnits="userSpaceOnUse">
<stop stop-color="#F9A826"/>
<stop offset="1" stop-color="white" stop-opacity="0"/>
</linearGradient>
<linearGradient id="paint1_linear" x1="130.264" y1="181.998" x2="435.004" y2="194.954" gradientUnits="userSpaceOnUse">
<stop stop-color="#F9A826"/>
<stop offset="1" stop-color="white" stop-opacity="0"/>
</linearGradient>
<linearGradient id="paint2_linear" x1="464.813" y1="421.896" x2="571.555" y2="212.404" gradientUnits="userSpaceOnUse">
<stop stop-color="white" stop-opacity="0.32"/>
<stop offset="1" stop-color="#F9A826" stop-opacity="0"/>
</linearGradient>
<linearGradient id="paint3_linear" x1="554.917" y1="265.902" x2="590.953" y2="269.303" gradientUnits="userSpaceOnUse">
<stop stop-color="white" stop-opacity="0"/>
<stop offset="1" stop-color="white" stop-opacity="0.64"/>
</linearGradient>
<clipPath id="clip0">
<rect width="736" height="435" fill="white"/>
</clipPath>
</defs>
</svg>
